<mxfile host="app.diagrams.net" modified="2023-04-08T15:00:54.973Z" agent="Mozilla/5.0 (Windows NT 10.0; Win64; x64; rv:109.0) Gecko/20100101 Firefox/111.0" etag="5N1X9R40-pjzVYL8zG-7" version="21.1.4" type="github">
  <diagram name="PÃ¡gina-1" id="TJzIcAFvEYk6zx9Oy0v9">
    <mxGraphModel dx="1432" dy="1300" grid="1" gridSize="10" guides="1" tooltips="1" connect="1" arrows="1" fold="1" page="1" pageScale="1" pageWidth="827" pageHeight="1169" math="0" shadow="0">
      <root>
        <mxCell id="0" />
        <mxCell id="1" parent="0" />
        <mxCell id="DJL6w_0i-jA8CKH0Ls61-1" value="Profesor" style="rounded=0;whiteSpace=wrap;html=1;" vertex="1" parent="1">
          <mxGeometry x="140.5" y="640" width="120" height="60" as="geometry" />
        </mxCell>
        <mxCell id="DJL6w_0i-jA8CKH0Ls61-2" value="Asignatura" style="rounded=0;whiteSpace=wrap;html=1;" vertex="1" parent="1">
          <mxGeometry x="150" y="330" width="120" height="60" as="geometry" />
        </mxCell>
        <mxCell id="DJL6w_0i-jA8CKH0Ls61-3" value="Alumno" style="rounded=0;whiteSpace=wrap;html=1;" vertex="1" parent="1">
          <mxGeometry x="510" y="330" width="120" height="60" as="geometry" />
        </mxCell>
        <mxCell id="DJL6w_0i-jA8CKH0Ls61-5" value="Nota" style="ellipse;whiteSpace=wrap;html=1;" vertex="1" parent="1">
          <mxGeometry x="325" y="440" width="110" height="50" as="geometry" />
        </mxCell>
        <mxCell id="DJL6w_0i-jA8CKH0Ls61-6" value="Clase" style="rounded=0;whiteSpace=wrap;html=1;" vertex="1" parent="1">
          <mxGeometry x="510" y="640" width="120" height="60" as="geometry" />
        </mxCell>
        <mxCell id="DJL6w_0i-jA8CKH0Ls61-11" value="Dicta" style="rhombus;whiteSpace=wrap;html=1;" vertex="1" parent="1">
          <mxGeometry x="330.5" y="630" width="80" height="80" as="geometry" />
        </mxCell>
        <mxCell id="DJL6w_0i-jA8CKH0Ls61-13" value="hora" style="ellipse;whiteSpace=wrap;html=1;" vertex="1" parent="1">
          <mxGeometry x="420" y="750" width="110" height="50" as="geometry" />
        </mxCell>
        <mxCell id="DJL6w_0i-jA8CKH0Ls61-14" value="id_clase" style="ellipse;whiteSpace=wrap;html=1;" vertex="1" parent="1">
          <mxGeometry x="589.5" y="750" width="110" height="50" as="geometry" />
        </mxCell>
        <mxCell id="DJL6w_0i-jA8CKH0Ls61-15" value="lugar" style="ellipse;whiteSpace=wrap;html=1;" vertex="1" parent="1">
          <mxGeometry x="515" y="820" width="110" height="50" as="geometry" />
        </mxCell>
        <mxCell id="DJL6w_0i-jA8CKH0Ls61-17" value="" style="endArrow=none;html=1;rounded=0;entryX=0.25;entryY=1;entryDx=0;entryDy=0;exitX=0.5;exitY=0;exitDx=0;exitDy=0;" edge="1" parent="1" source="DJL6w_0i-jA8CKH0Ls61-13" target="DJL6w_0i-jA8CKH0Ls61-6">
          <mxGeometry width="50" height="50" relative="1" as="geometry">
            <mxPoint x="749.5" y="899.9999999999999" as="sourcePoint" />
            <mxPoint x="799.5" y="850" as="targetPoint" />
          </mxGeometry>
        </mxCell>
        <mxCell id="DJL6w_0i-jA8CKH0Ls61-18" value="" style="endArrow=none;html=1;rounded=0;entryX=0.75;entryY=1;entryDx=0;entryDy=0;exitX=0.5;exitY=0;exitDx=0;exitDy=0;" edge="1" parent="1" source="DJL6w_0i-jA8CKH0Ls61-14" target="DJL6w_0i-jA8CKH0Ls61-6">
          <mxGeometry width="50" height="50" relative="1" as="geometry">
            <mxPoint x="474.5" y="760" as="sourcePoint" />
            <mxPoint x="539.5" y="710" as="targetPoint" />
          </mxGeometry>
        </mxCell>
        <mxCell id="DJL6w_0i-jA8CKH0Ls61-19" value="" style="endArrow=none;html=1;rounded=0;entryX=0.5;entryY=1;entryDx=0;entryDy=0;" edge="1" parent="1" source="DJL6w_0i-jA8CKH0Ls61-15" target="DJL6w_0i-jA8CKH0Ls61-6">
          <mxGeometry width="50" height="50" relative="1" as="geometry">
            <mxPoint x="654.5" y="760" as="sourcePoint" />
            <mxPoint x="599.5" y="710" as="targetPoint" />
          </mxGeometry>
        </mxCell>
        <mxCell id="DJL6w_0i-jA8CKH0Ls61-23" value="id_asignatura" style="ellipse;whiteSpace=wrap;html=1;" vertex="1" parent="1">
          <mxGeometry x="155" y="210" width="110" height="50" as="geometry" />
        </mxCell>
        <mxCell id="DJL6w_0i-jA8CKH0Ls61-25" value="" style="endArrow=none;html=1;rounded=0;entryX=0.5;entryY=1;entryDx=0;entryDy=0;" edge="1" parent="1" source="DJL6w_0i-jA8CKH0Ls61-2" target="DJL6w_0i-jA8CKH0Ls61-23">
          <mxGeometry width="50" height="50" relative="1" as="geometry">
            <mxPoint x="400" y="800" as="sourcePoint" />
            <mxPoint x="450" y="750" as="targetPoint" />
          </mxGeometry>
        </mxCell>
        <mxCell id="DJL6w_0i-jA8CKH0Ls61-126" style="edgeStyle=orthogonalEdgeStyle;rounded=0;orthogonalLoop=1;jettySize=auto;html=1;exitX=0.5;exitY=1;exitDx=0;exitDy=0;" edge="1" parent="1" source="DJL6w_0i-jA8CKH0Ls61-30" target="DJL6w_0i-jA8CKH0Ls61-5">
          <mxGeometry relative="1" as="geometry" />
        </mxCell>
        <mxCell id="DJL6w_0i-jA8CKH0Ls61-30" value="Cursa" style="rhombus;whiteSpace=wrap;html=1;" vertex="1" parent="1">
          <mxGeometry x="340" y="320" width="80" height="80" as="geometry" />
        </mxCell>
        <mxCell id="DJL6w_0i-jA8CKH0Ls61-31" value="" style="endArrow=none;html=1;rounded=0;entryX=0;entryY=0.5;entryDx=0;entryDy=0;exitX=1;exitY=0.5;exitDx=0;exitDy=0;" edge="1" parent="1" target="DJL6w_0i-jA8CKH0Ls61-30" source="DJL6w_0i-jA8CKH0Ls61-2">
          <mxGeometry width="50" height="50" relative="1" as="geometry">
            <mxPoint x="380" y="445" as="sourcePoint" />
            <mxPoint x="330" y="485" as="targetPoint" />
          </mxGeometry>
        </mxCell>
        <mxCell id="DJL6w_0i-jA8CKH0Ls61-32" value="" style="endArrow=none;html=1;rounded=0;entryX=0;entryY=0.5;entryDx=0;entryDy=0;exitX=1;exitY=0.5;exitDx=0;exitDy=0;" edge="1" parent="1" source="DJL6w_0i-jA8CKH0Ls61-30" target="DJL6w_0i-jA8CKH0Ls61-3">
          <mxGeometry width="50" height="50" relative="1" as="geometry">
            <mxPoint x="390" y="455" as="sourcePoint" />
            <mxPoint x="380" y="275" as="targetPoint" />
          </mxGeometry>
        </mxCell>
        <mxCell id="DJL6w_0i-jA8CKH0Ls61-33" value="nombre_alumno" style="ellipse;whiteSpace=wrap;html=1;" vertex="1" parent="1">
          <mxGeometry x="430" y="160" width="110" height="50" as="geometry" />
        </mxCell>
        <mxCell id="DJL6w_0i-jA8CKH0Ls61-34" value="id_alumno" style="ellipse;whiteSpace=wrap;html=1;" vertex="1" parent="1">
          <mxGeometry x="610" y="160" width="110" height="50" as="geometry" />
        </mxCell>
        <mxCell id="DJL6w_0i-jA8CKH0Ls61-35" value="apellido_alumno" style="ellipse;whiteSpace=wrap;html=1;" vertex="1" parent="1">
          <mxGeometry x="515" y="210" width="110" height="50" as="geometry" />
        </mxCell>
        <mxCell id="DJL6w_0i-jA8CKH0Ls61-36" value="" style="endArrow=none;html=1;rounded=0;entryX=0.25;entryY=0;entryDx=0;entryDy=0;exitX=0.5;exitY=1;exitDx=0;exitDy=0;" edge="1" parent="1" source="DJL6w_0i-jA8CKH0Ls61-33" target="DJL6w_0i-jA8CKH0Ls61-3">
          <mxGeometry width="50" height="50" relative="1" as="geometry">
            <mxPoint x="820" y="260" as="sourcePoint" />
            <mxPoint x="600" y="60" as="targetPoint" />
          </mxGeometry>
        </mxCell>
        <mxCell id="DJL6w_0i-jA8CKH0Ls61-37" value="" style="endArrow=none;html=1;rounded=0;entryX=0.75;entryY=0;entryDx=0;entryDy=0;exitX=0.5;exitY=1;exitDx=0;exitDy=0;" edge="1" parent="1" source="DJL6w_0i-jA8CKH0Ls61-34" target="DJL6w_0i-jA8CKH0Ls61-3">
          <mxGeometry width="50" height="50" relative="1" as="geometry">
            <mxPoint x="545" y="120" as="sourcePoint" />
            <mxPoint x="660" y="60" as="targetPoint" />
          </mxGeometry>
        </mxCell>
        <mxCell id="DJL6w_0i-jA8CKH0Ls61-38" value="" style="endArrow=none;html=1;rounded=0;entryX=0.5;entryY=0;entryDx=0;entryDy=0;exitX=0.5;exitY=1;exitDx=0;exitDy=0;" edge="1" parent="1" source="DJL6w_0i-jA8CKH0Ls61-35" target="DJL6w_0i-jA8CKH0Ls61-3">
          <mxGeometry width="50" height="50" relative="1" as="geometry">
            <mxPoint x="725" y="120" as="sourcePoint" />
            <mxPoint x="630" y="60" as="targetPoint" />
          </mxGeometry>
        </mxCell>
        <mxCell id="DJL6w_0i-jA8CKH0Ls61-39" value="nombre_profesor" style="ellipse;whiteSpace=wrap;html=1;" vertex="1" parent="1">
          <mxGeometry x="60.5" y="830" width="110" height="50" as="geometry" />
        </mxCell>
        <mxCell id="DJL6w_0i-jA8CKH0Ls61-40" value="id_profesor" style="ellipse;whiteSpace=wrap;html=1;" vertex="1" parent="1">
          <mxGeometry x="255.5" y="820" width="110" height="50" as="geometry" />
        </mxCell>
        <mxCell id="DJL6w_0i-jA8CKH0Ls61-41" value="apellido_profesor" style="ellipse;whiteSpace=wrap;html=1;" vertex="1" parent="1">
          <mxGeometry x="145.5" y="760" width="110" height="50" as="geometry" />
        </mxCell>
        <mxCell id="DJL6w_0i-jA8CKH0Ls61-42" value="" style="endArrow=none;html=1;rounded=0;entryX=0.25;entryY=1;entryDx=0;entryDy=0;exitX=0.5;exitY=0;exitDx=0;exitDy=0;" edge="1" parent="1" source="DJL6w_0i-jA8CKH0Ls61-39" target="DJL6w_0i-jA8CKH0Ls61-1">
          <mxGeometry width="50" height="50" relative="1" as="geometry">
            <mxPoint x="455.5" y="850" as="sourcePoint" />
            <mxPoint x="175.5" y="919.9999999999999" as="targetPoint" />
          </mxGeometry>
        </mxCell>
        <mxCell id="DJL6w_0i-jA8CKH0Ls61-43" value="" style="endArrow=none;html=1;rounded=0;entryX=0.75;entryY=1;entryDx=0;entryDy=0;exitX=0.5;exitY=0;exitDx=0;exitDy=0;" edge="1" parent="1" source="DJL6w_0i-jA8CKH0Ls61-40" target="DJL6w_0i-jA8CKH0Ls61-1">
          <mxGeometry width="50" height="50" relative="1" as="geometry">
            <mxPoint x="295.5" y="830" as="sourcePoint" />
            <mxPoint x="235.5" y="919.9999999999999" as="targetPoint" />
          </mxGeometry>
        </mxCell>
        <mxCell id="DJL6w_0i-jA8CKH0Ls61-44" value="" style="endArrow=none;html=1;rounded=0;entryX=0.5;entryY=1;entryDx=0;entryDy=0;exitX=0.5;exitY=0;exitDx=0;exitDy=0;" edge="1" parent="1" source="DJL6w_0i-jA8CKH0Ls61-41" target="DJL6w_0i-jA8CKH0Ls61-1">
          <mxGeometry width="50" height="50" relative="1" as="geometry">
            <mxPoint x="205.5" y="780" as="sourcePoint" />
            <mxPoint x="205.5" y="919.9999999999999" as="targetPoint" />
          </mxGeometry>
        </mxCell>
        <mxCell id="DJL6w_0i-jA8CKH0Ls61-45" value="nombre_alumno" style="ellipse;whiteSpace=wrap;html=1;" vertex="1" parent="1">
          <mxGeometry x="430" y="160" width="110" height="50" as="geometry" />
        </mxCell>
        <mxCell id="DJL6w_0i-jA8CKH0Ls61-46" value="" style="endArrow=none;html=1;rounded=0;entryX=0.25;entryY=0;entryDx=0;entryDy=0;exitX=0.5;exitY=1;exitDx=0;exitDy=0;" edge="1" parent="1" target="DJL6w_0i-jA8CKH0Ls61-2">
          <mxGeometry width="50" height="50" relative="1" as="geometry">
            <mxPoint x="105" y="210" as="sourcePoint" />
            <mxPoint x="170" y="330" as="targetPoint" />
          </mxGeometry>
        </mxCell>
        <mxCell id="DJL6w_0i-jA8CKH0Ls61-47" value="nombre_asignatura" style="ellipse;whiteSpace=wrap;html=1;" vertex="1" parent="1">
          <mxGeometry x="50" y="160" width="110" height="50" as="geometry" />
        </mxCell>
        <mxCell id="DJL6w_0i-jA8CKH0Ls61-48" value="Toma" style="rhombus;whiteSpace=wrap;html=1;" vertex="1" parent="1">
          <mxGeometry x="530" y="505" width="80" height="80" as="geometry" />
        </mxCell>
        <mxCell id="DJL6w_0i-jA8CKH0Ls61-54" value="Cliente" style="rounded=0;whiteSpace=wrap;html=1;" vertex="1" parent="1">
          <mxGeometry x="155" y="1290" width="120" height="60" as="geometry" />
        </mxCell>
        <mxCell id="DJL6w_0i-jA8CKH0Ls61-55" value="Auto" style="rounded=0;whiteSpace=wrap;html=1;" vertex="1" parent="1">
          <mxGeometry x="515" y="1290" width="120" height="60" as="geometry" />
        </mxCell>
        <mxCell id="DJL6w_0i-jA8CKH0Ls61-58" value="Accidente" style="rounded=0;whiteSpace=wrap;html=1;" vertex="1" parent="1">
          <mxGeometry x="835" y="1290" width="120" height="60" as="geometry" />
        </mxCell>
        <mxCell id="DJL6w_0i-jA8CKH0Ls61-60" value="hora" style="ellipse;whiteSpace=wrap;html=1;" vertex="1" parent="1">
          <mxGeometry x="745" y="1400" width="110" height="50" as="geometry" />
        </mxCell>
        <mxCell id="DJL6w_0i-jA8CKH0Ls61-61" value="&amp;nbsp;id_accidente" style="ellipse;whiteSpace=wrap;html=1;" vertex="1" parent="1">
          <mxGeometry x="925" y="1400" width="110" height="50" as="geometry" />
        </mxCell>
        <mxCell id="DJL6w_0i-jA8CKH0Ls61-62" value="lugar" style="ellipse;whiteSpace=wrap;html=1;" vertex="1" parent="1">
          <mxGeometry x="840" y="1470" width="110" height="50" as="geometry" />
        </mxCell>
        <mxCell id="DJL6w_0i-jA8CKH0Ls61-63" value="" style="endArrow=none;html=1;rounded=0;entryX=0.25;entryY=1;entryDx=0;entryDy=0;exitX=0.5;exitY=0;exitDx=0;exitDy=0;" edge="1" parent="1" source="DJL6w_0i-jA8CKH0Ls61-60" target="DJL6w_0i-jA8CKH0Ls61-58">
          <mxGeometry width="50" height="50" relative="1" as="geometry">
            <mxPoint x="1085" y="1550" as="sourcePoint" />
            <mxPoint x="1135" y="1500" as="targetPoint" />
          </mxGeometry>
        </mxCell>
        <mxCell id="DJL6w_0i-jA8CKH0Ls61-64" value="" style="endArrow=none;html=1;rounded=0;entryX=0.75;entryY=1;entryDx=0;entryDy=0;exitX=0.5;exitY=0;exitDx=0;exitDy=0;" edge="1" parent="1" source="DJL6w_0i-jA8CKH0Ls61-61" target="DJL6w_0i-jA8CKH0Ls61-58">
          <mxGeometry width="50" height="50" relative="1" as="geometry">
            <mxPoint x="810" y="1410" as="sourcePoint" />
            <mxPoint x="875" y="1360" as="targetPoint" />
          </mxGeometry>
        </mxCell>
        <mxCell id="DJL6w_0i-jA8CKH0Ls61-65" value="" style="endArrow=none;html=1;rounded=0;entryX=0.5;entryY=1;entryDx=0;entryDy=0;" edge="1" parent="1" source="DJL6w_0i-jA8CKH0Ls61-62" target="DJL6w_0i-jA8CKH0Ls61-58">
          <mxGeometry width="50" height="50" relative="1" as="geometry">
            <mxPoint x="990" y="1410" as="sourcePoint" />
            <mxPoint x="935" y="1360" as="targetPoint" />
          </mxGeometry>
        </mxCell>
        <mxCell id="DJL6w_0i-jA8CKH0Ls61-66" value="id_cliente" style="ellipse;whiteSpace=wrap;html=1;" vertex="1" parent="1">
          <mxGeometry x="160" y="1170" width="110" height="50" as="geometry" />
        </mxCell>
        <mxCell id="DJL6w_0i-jA8CKH0Ls61-67" value="" style="endArrow=none;html=1;rounded=0;entryX=0.5;entryY=1;entryDx=0;entryDy=0;" edge="1" parent="1" source="DJL6w_0i-jA8CKH0Ls61-54" target="DJL6w_0i-jA8CKH0Ls61-66">
          <mxGeometry width="50" height="50" relative="1" as="geometry">
            <mxPoint x="405" y="1760" as="sourcePoint" />
            <mxPoint x="455" y="1710" as="targetPoint" />
          </mxGeometry>
        </mxCell>
        <mxCell id="DJL6w_0i-jA8CKH0Ls61-70" value="Tiene" style="rhombus;whiteSpace=wrap;html=1;" vertex="1" parent="1">
          <mxGeometry x="345" y="1280" width="80" height="80" as="geometry" />
        </mxCell>
        <mxCell id="DJL6w_0i-jA8CKH0Ls61-71" value="" style="endArrow=none;html=1;rounded=0;entryX=0;entryY=0.5;entryDx=0;entryDy=0;exitX=1;exitY=0.5;exitDx=0;exitDy=0;" edge="1" parent="1" source="DJL6w_0i-jA8CKH0Ls61-54" target="DJL6w_0i-jA8CKH0Ls61-70">
          <mxGeometry width="50" height="50" relative="1" as="geometry">
            <mxPoint x="385" y="1405" as="sourcePoint" />
            <mxPoint x="335" y="1445" as="targetPoint" />
          </mxGeometry>
        </mxCell>
        <mxCell id="DJL6w_0i-jA8CKH0Ls61-72" value="" style="endArrow=none;html=1;rounded=0;entryX=0;entryY=0.5;entryDx=0;entryDy=0;exitX=1;exitY=0.5;exitDx=0;exitDy=0;" edge="1" parent="1" source="DJL6w_0i-jA8CKH0Ls61-70" target="DJL6w_0i-jA8CKH0Ls61-55">
          <mxGeometry width="50" height="50" relative="1" as="geometry">
            <mxPoint x="395" y="1415" as="sourcePoint" />
            <mxPoint x="385" y="1235" as="targetPoint" />
          </mxGeometry>
        </mxCell>
        <mxCell id="DJL6w_0i-jA8CKH0Ls61-73" value="nombre_alumno" style="ellipse;whiteSpace=wrap;html=1;" vertex="1" parent="1">
          <mxGeometry x="435" y="1120" width="110" height="50" as="geometry" />
        </mxCell>
        <mxCell id="DJL6w_0i-jA8CKH0Ls61-74" value="id_auto" style="ellipse;whiteSpace=wrap;html=1;" vertex="1" parent="1">
          <mxGeometry x="615" y="1120" width="110" height="50" as="geometry" />
        </mxCell>
        <mxCell id="DJL6w_0i-jA8CKH0Ls61-75" value="marca" style="ellipse;whiteSpace=wrap;html=1;" vertex="1" parent="1">
          <mxGeometry x="520" y="1170" width="110" height="50" as="geometry" />
        </mxCell>
        <mxCell id="DJL6w_0i-jA8CKH0Ls61-76" value="" style="endArrow=none;html=1;rounded=0;entryX=0.25;entryY=0;entryDx=0;entryDy=0;exitX=0.5;exitY=1;exitDx=0;exitDy=0;" edge="1" parent="1" source="DJL6w_0i-jA8CKH0Ls61-73" target="DJL6w_0i-jA8CKH0Ls61-55">
          <mxGeometry width="50" height="50" relative="1" as="geometry">
            <mxPoint x="825" y="1220" as="sourcePoint" />
            <mxPoint x="605" y="1020" as="targetPoint" />
          </mxGeometry>
        </mxCell>
        <mxCell id="DJL6w_0i-jA8CKH0Ls61-77" value="" style="endArrow=none;html=1;rounded=0;entryX=0.75;entryY=0;entryDx=0;entryDy=0;exitX=0.5;exitY=1;exitDx=0;exitDy=0;" edge="1" parent="1" source="DJL6w_0i-jA8CKH0Ls61-74" target="DJL6w_0i-jA8CKH0Ls61-55">
          <mxGeometry width="50" height="50" relative="1" as="geometry">
            <mxPoint x="550" y="1080" as="sourcePoint" />
            <mxPoint x="665" y="1020" as="targetPoint" />
          </mxGeometry>
        </mxCell>
        <mxCell id="DJL6w_0i-jA8CKH0Ls61-78" value="" style="endArrow=none;html=1;rounded=0;entryX=0.5;entryY=0;entryDx=0;entryDy=0;exitX=0.5;exitY=1;exitDx=0;exitDy=0;" edge="1" parent="1" source="DJL6w_0i-jA8CKH0Ls61-75" target="DJL6w_0i-jA8CKH0Ls61-55">
          <mxGeometry width="50" height="50" relative="1" as="geometry">
            <mxPoint x="730" y="1080" as="sourcePoint" />
            <mxPoint x="635" y="1020" as="targetPoint" />
          </mxGeometry>
        </mxCell>
        <mxCell id="DJL6w_0i-jA8CKH0Ls61-84" value="patente" style="ellipse;whiteSpace=wrap;html=1;" vertex="1" parent="1">
          <mxGeometry x="435" y="1120" width="110" height="50" as="geometry" />
        </mxCell>
        <mxCell id="DJL6w_0i-jA8CKH0Ls61-85" value="" style="endArrow=none;html=1;rounded=0;entryX=0.25;entryY=0;entryDx=0;entryDy=0;exitX=0.5;exitY=1;exitDx=0;exitDy=0;" edge="1" parent="1" target="DJL6w_0i-jA8CKH0Ls61-54">
          <mxGeometry width="50" height="50" relative="1" as="geometry">
            <mxPoint x="110" y="1170" as="sourcePoint" />
            <mxPoint x="175" y="1290" as="targetPoint" />
          </mxGeometry>
        </mxCell>
        <mxCell id="DJL6w_0i-jA8CKH0Ls61-86" value="nombre_cliente" style="ellipse;whiteSpace=wrap;html=1;" vertex="1" parent="1">
          <mxGeometry x="55" y="1120" width="110" height="50" as="geometry" />
        </mxCell>
        <mxCell id="DJL6w_0i-jA8CKH0Ls61-130" style="edgeStyle=orthogonalEdgeStyle;rounded=0;orthogonalLoop=1;jettySize=auto;html=1;exitX=0.5;exitY=0;exitDx=0;exitDy=0;entryX=0.5;entryY=1;entryDx=0;entryDy=0;" edge="1" parent="1" source="DJL6w_0i-jA8CKH0Ls61-87" target="DJL6w_0i-jA8CKH0Ls61-127">
          <mxGeometry relative="1" as="geometry" />
        </mxCell>
        <mxCell id="DJL6w_0i-jA8CKH0Ls61-87" value="Protagoniza" style="rhombus;whiteSpace=wrap;html=1;" vertex="1" parent="1">
          <mxGeometry x="695" y="1280" width="80" height="80" as="geometry" />
        </mxCell>
        <mxCell id="DJL6w_0i-jA8CKH0Ls61-88" value="" style="endArrow=none;html=1;rounded=0;entryX=0;entryY=0.5;entryDx=0;entryDy=0;exitX=1;exitY=0.5;exitDx=0;exitDy=0;" edge="1" parent="1" source="DJL6w_0i-jA8CKH0Ls61-55" target="DJL6w_0i-jA8CKH0Ls61-87">
          <mxGeometry width="50" height="50" relative="1" as="geometry">
            <mxPoint x="220.73984663447868" y="1350" as="sourcePoint" />
            <mxPoint x="45" y="1360.42" as="targetPoint" />
          </mxGeometry>
        </mxCell>
        <mxCell id="DJL6w_0i-jA8CKH0Ls61-89" value="" style="endArrow=none;html=1;rounded=0;entryX=1;entryY=0.5;entryDx=0;entryDy=0;exitX=0;exitY=0.5;exitDx=0;exitDy=0;" edge="1" parent="1" source="DJL6w_0i-jA8CKH0Ls61-58" target="DJL6w_0i-jA8CKH0Ls61-87">
          <mxGeometry width="50" height="50" relative="1" as="geometry">
            <mxPoint x="1185" y="1510" as="sourcePoint" />
            <mxPoint x="844.9999999999998" y="1370.42" as="targetPoint" />
          </mxGeometry>
        </mxCell>
        <mxCell id="DJL6w_0i-jA8CKH0Ls61-91" value="Medico" style="rounded=0;whiteSpace=wrap;html=1;" vertex="1" parent="1">
          <mxGeometry y="1930" width="120" height="60" as="geometry" />
        </mxCell>
        <mxCell id="DJL6w_0i-jA8CKH0Ls61-92" value="Paciente" style="rounded=0;whiteSpace=wrap;html=1;" vertex="1" parent="1">
          <mxGeometry x="360" y="1930" width="120" height="60" as="geometry" />
        </mxCell>
        <mxCell id="DJL6w_0i-jA8CKH0Ls61-95" value="Analisis" style="rounded=0;whiteSpace=wrap;html=1;" vertex="1" parent="1">
          <mxGeometry x="680" y="1930" width="120" height="60" as="geometry" />
        </mxCell>
        <mxCell id="DJL6w_0i-jA8CKH0Ls61-97" value="hora" style="ellipse;whiteSpace=wrap;html=1;" vertex="1" parent="1">
          <mxGeometry x="590" y="2040" width="110" height="50" as="geometry" />
        </mxCell>
        <mxCell id="DJL6w_0i-jA8CKH0Ls61-98" value="id_analisis" style="ellipse;whiteSpace=wrap;html=1;" vertex="1" parent="1">
          <mxGeometry x="770" y="2040" width="110" height="50" as="geometry" />
        </mxCell>
        <mxCell id="DJL6w_0i-jA8CKH0Ls61-99" value="lugar" style="ellipse;whiteSpace=wrap;html=1;" vertex="1" parent="1">
          <mxGeometry x="685" y="2110" width="110" height="50" as="geometry" />
        </mxCell>
        <mxCell id="DJL6w_0i-jA8CKH0Ls61-100" value="" style="endArrow=none;html=1;rounded=0;entryX=0.25;entryY=1;entryDx=0;entryDy=0;exitX=0.5;exitY=0;exitDx=0;exitDy=0;" edge="1" parent="1" source="DJL6w_0i-jA8CKH0Ls61-97" target="DJL6w_0i-jA8CKH0Ls61-95">
          <mxGeometry width="50" height="50" relative="1" as="geometry">
            <mxPoint x="930" y="2190" as="sourcePoint" />
            <mxPoint x="980" y="2140" as="targetPoint" />
          </mxGeometry>
        </mxCell>
        <mxCell id="DJL6w_0i-jA8CKH0Ls61-101" value="" style="endArrow=none;html=1;rounded=0;entryX=0.75;entryY=1;entryDx=0;entryDy=0;exitX=0.5;exitY=0;exitDx=0;exitDy=0;" edge="1" parent="1" source="DJL6w_0i-jA8CKH0Ls61-98" target="DJL6w_0i-jA8CKH0Ls61-95">
          <mxGeometry width="50" height="50" relative="1" as="geometry">
            <mxPoint x="655" y="2050" as="sourcePoint" />
            <mxPoint x="720" y="2000" as="targetPoint" />
          </mxGeometry>
        </mxCell>
        <mxCell id="DJL6w_0i-jA8CKH0Ls61-102" value="" style="endArrow=none;html=1;rounded=0;entryX=0.5;entryY=1;entryDx=0;entryDy=0;" edge="1" parent="1" source="DJL6w_0i-jA8CKH0Ls61-99" target="DJL6w_0i-jA8CKH0Ls61-95">
          <mxGeometry width="50" height="50" relative="1" as="geometry">
            <mxPoint x="835" y="2050" as="sourcePoint" />
            <mxPoint x="780" y="2000" as="targetPoint" />
          </mxGeometry>
        </mxCell>
        <mxCell id="DJL6w_0i-jA8CKH0Ls61-103" value="id_medico" style="ellipse;whiteSpace=wrap;html=1;" vertex="1" parent="1">
          <mxGeometry x="5" y="1810" width="110" height="50" as="geometry" />
        </mxCell>
        <mxCell id="DJL6w_0i-jA8CKH0Ls61-104" value="" style="endArrow=none;html=1;rounded=0;entryX=0.5;entryY=1;entryDx=0;entryDy=0;" edge="1" parent="1" source="DJL6w_0i-jA8CKH0Ls61-91" target="DJL6w_0i-jA8CKH0Ls61-103">
          <mxGeometry width="50" height="50" relative="1" as="geometry">
            <mxPoint x="250" y="2400" as="sourcePoint" />
            <mxPoint x="300" y="2350" as="targetPoint" />
          </mxGeometry>
        </mxCell>
        <mxCell id="DJL6w_0i-jA8CKH0Ls61-107" value="Atiende" style="rhombus;whiteSpace=wrap;html=1;" vertex="1" parent="1">
          <mxGeometry x="190" y="1920" width="80" height="80" as="geometry" />
        </mxCell>
        <mxCell id="DJL6w_0i-jA8CKH0Ls61-108" value="" style="endArrow=none;html=1;rounded=0;entryX=0;entryY=0.5;entryDx=0;entryDy=0;exitX=1;exitY=0.5;exitDx=0;exitDy=0;" edge="1" parent="1" source="DJL6w_0i-jA8CKH0Ls61-91" target="DJL6w_0i-jA8CKH0Ls61-107">
          <mxGeometry width="50" height="50" relative="1" as="geometry">
            <mxPoint x="230" y="2045" as="sourcePoint" />
            <mxPoint x="180" y="2085" as="targetPoint" />
          </mxGeometry>
        </mxCell>
        <mxCell id="DJL6w_0i-jA8CKH0Ls61-109" value="" style="endArrow=none;html=1;rounded=0;entryX=0;entryY=0.5;entryDx=0;entryDy=0;exitX=1;exitY=0.5;exitDx=0;exitDy=0;" edge="1" parent="1" source="DJL6w_0i-jA8CKH0Ls61-107" target="DJL6w_0i-jA8CKH0Ls61-92">
          <mxGeometry width="50" height="50" relative="1" as="geometry">
            <mxPoint x="240" y="2055" as="sourcePoint" />
            <mxPoint x="230" y="1875" as="targetPoint" />
          </mxGeometry>
        </mxCell>
        <mxCell id="DJL6w_0i-jA8CKH0Ls61-110" value="nombre_alumno" style="ellipse;whiteSpace=wrap;html=1;" vertex="1" parent="1">
          <mxGeometry x="280" y="1760" width="110" height="50" as="geometry" />
        </mxCell>
        <mxCell id="DJL6w_0i-jA8CKH0Ls61-111" value="id_paciente" style="ellipse;whiteSpace=wrap;html=1;" vertex="1" parent="1">
          <mxGeometry x="460" y="1760" width="110" height="50" as="geometry" />
        </mxCell>
        <mxCell id="DJL6w_0i-jA8CKH0Ls61-112" value="apellido_paciente" style="ellipse;whiteSpace=wrap;html=1;" vertex="1" parent="1">
          <mxGeometry x="365" y="1810" width="110" height="50" as="geometry" />
        </mxCell>
        <mxCell id="DJL6w_0i-jA8CKH0Ls61-113" value="" style="endArrow=none;html=1;rounded=0;entryX=0.25;entryY=0;entryDx=0;entryDy=0;exitX=0.5;exitY=1;exitDx=0;exitDy=0;" edge="1" parent="1" source="DJL6w_0i-jA8CKH0Ls61-110" target="DJL6w_0i-jA8CKH0Ls61-92">
          <mxGeometry width="50" height="50" relative="1" as="geometry">
            <mxPoint x="670" y="1860" as="sourcePoint" />
            <mxPoint x="450" y="1660" as="targetPoint" />
          </mxGeometry>
        </mxCell>
        <mxCell id="DJL6w_0i-jA8CKH0Ls61-114" value="" style="endArrow=none;html=1;rounded=0;entryX=0.75;entryY=0;entryDx=0;entryDy=0;exitX=0.5;exitY=1;exitDx=0;exitDy=0;" edge="1" parent="1" source="DJL6w_0i-jA8CKH0Ls61-111" target="DJL6w_0i-jA8CKH0Ls61-92">
          <mxGeometry width="50" height="50" relative="1" as="geometry">
            <mxPoint x="395" y="1720" as="sourcePoint" />
            <mxPoint x="510" y="1660" as="targetPoint" />
          </mxGeometry>
        </mxCell>
        <mxCell id="DJL6w_0i-jA8CKH0Ls61-115" value="" style="endArrow=none;html=1;rounded=0;entryX=0.5;entryY=0;entryDx=0;entryDy=0;exitX=0.5;exitY=1;exitDx=0;exitDy=0;" edge="1" parent="1" source="DJL6w_0i-jA8CKH0Ls61-112" target="DJL6w_0i-jA8CKH0Ls61-92">
          <mxGeometry width="50" height="50" relative="1" as="geometry">
            <mxPoint x="575" y="1720" as="sourcePoint" />
            <mxPoint x="480" y="1660" as="targetPoint" />
          </mxGeometry>
        </mxCell>
        <mxCell id="DJL6w_0i-jA8CKH0Ls61-121" value="nombre_paciente" style="ellipse;whiteSpace=wrap;html=1;" vertex="1" parent="1">
          <mxGeometry x="280" y="1760" width="110" height="50" as="geometry" />
        </mxCell>
        <mxCell id="DJL6w_0i-jA8CKH0Ls61-123" value="Realiza" style="rhombus;whiteSpace=wrap;html=1;" vertex="1" parent="1">
          <mxGeometry x="540" y="1920" width="80" height="80" as="geometry" />
        </mxCell>
        <mxCell id="DJL6w_0i-jA8CKH0Ls61-124" value="" style="endArrow=none;html=1;rounded=0;entryX=0;entryY=0.5;entryDx=0;entryDy=0;exitX=1;exitY=0.5;exitDx=0;exitDy=0;" edge="1" parent="1" source="DJL6w_0i-jA8CKH0Ls61-92" target="DJL6w_0i-jA8CKH0Ls61-123">
          <mxGeometry width="50" height="50" relative="1" as="geometry">
            <mxPoint x="65.73984663447868" y="1990" as="sourcePoint" />
            <mxPoint x="-110" y="2000.42" as="targetPoint" />
          </mxGeometry>
        </mxCell>
        <mxCell id="DJL6w_0i-jA8CKH0Ls61-125" value="" style="endArrow=none;html=1;rounded=0;entryX=1;entryY=0.5;entryDx=0;entryDy=0;exitX=0;exitY=0.5;exitDx=0;exitDy=0;" edge="1" parent="1" source="DJL6w_0i-jA8CKH0Ls61-95" target="DJL6w_0i-jA8CKH0Ls61-123">
          <mxGeometry width="50" height="50" relative="1" as="geometry">
            <mxPoint x="1030" y="2150" as="sourcePoint" />
            <mxPoint x="689.9999999999998" y="2010.42" as="targetPoint" />
          </mxGeometry>
        </mxCell>
        <mxCell id="DJL6w_0i-jA8CKH0Ls61-127" value="nro_accidentes" style="ellipse;whiteSpace=wrap;html=1;" vertex="1" parent="1">
          <mxGeometry x="680" y="1200" width="110" height="50" as="geometry" />
        </mxCell>
        <mxCell id="DJL6w_0i-jA8CKH0Ls61-132" value="&lt;font style=&quot;font-size: 14px;&quot;&gt;&lt;b&gt;(N:M)&lt;/b&gt;&lt;/font&gt;" style="text;html=1;strokeColor=none;fillColor=none;align=center;verticalAlign=middle;whiteSpace=wrap;rounded=0;" vertex="1" parent="1">
          <mxGeometry x="350" y="290" width="60" height="30" as="geometry" />
        </mxCell>
        <mxCell id="DJL6w_0i-jA8CKH0Ls61-134" value="&lt;font style=&quot;font-size: 14px;&quot;&gt;&lt;b&gt;(N:M)&lt;/b&gt;&lt;/font&gt;" style="text;html=1;strokeColor=none;fillColor=none;align=center;verticalAlign=middle;whiteSpace=wrap;rounded=0;" vertex="1" parent="1">
          <mxGeometry x="615" y="530" width="60" height="30" as="geometry" />
        </mxCell>
        <mxCell id="DJL6w_0i-jA8CKH0Ls61-135" value="&lt;font style=&quot;font-size: 14px;&quot;&gt;&lt;b&gt;(N:M)&lt;/b&gt;&lt;/font&gt;" style="text;html=1;strokeColor=none;fillColor=none;align=center;verticalAlign=middle;whiteSpace=wrap;rounded=0;" vertex="1" parent="1">
          <mxGeometry x="340.5" y="600" width="60" height="30" as="geometry" />
        </mxCell>
        <mxCell id="DJL6w_0i-jA8CKH0Ls61-136" value="" style="endArrow=none;html=1;rounded=0;exitX=1;exitY=0.5;exitDx=0;exitDy=0;entryX=0;entryY=0.5;entryDx=0;entryDy=0;" edge="1" parent="1" source="DJL6w_0i-jA8CKH0Ls61-1" target="DJL6w_0i-jA8CKH0Ls61-11">
          <mxGeometry width="50" height="50" relative="1" as="geometry">
            <mxPoint x="630.5" y="430" as="sourcePoint" />
            <mxPoint x="680.5" y="380" as="targetPoint" />
          </mxGeometry>
        </mxCell>
        <mxCell id="DJL6w_0i-jA8CKH0Ls61-137" value="" style="endArrow=none;html=1;rounded=0;exitX=1;exitY=0.5;exitDx=0;exitDy=0;entryX=0;entryY=0.5;entryDx=0;entryDy=0;" edge="1" parent="1" target="DJL6w_0i-jA8CKH0Ls61-6">
          <mxGeometry width="50" height="50" relative="1" as="geometry">
            <mxPoint x="404.5" y="670" as="sourcePoint" />
            <mxPoint x="334.5" y="680" as="targetPoint" />
          </mxGeometry>
        </mxCell>
        <mxCell id="DJL6w_0i-jA8CKH0Ls61-138" value="" style="endArrow=none;html=1;rounded=0;exitX=0.5;exitY=0;exitDx=0;exitDy=0;entryX=0.5;entryY=1;entryDx=0;entryDy=0;" edge="1" parent="1" source="DJL6w_0i-jA8CKH0Ls61-6" target="DJL6w_0i-jA8CKH0Ls61-48">
          <mxGeometry width="50" height="50" relative="1" as="geometry">
            <mxPoint x="290" y="730" as="sourcePoint" />
            <mxPoint x="360" y="730" as="targetPoint" />
          </mxGeometry>
        </mxCell>
        <mxCell id="DJL6w_0i-jA8CKH0Ls61-139" value="" style="endArrow=none;html=1;rounded=0;exitX=0.5;exitY=0;exitDx=0;exitDy=0;entryX=0.5;entryY=1;entryDx=0;entryDy=0;" edge="1" parent="1" source="DJL6w_0i-jA8CKH0Ls61-48" target="DJL6w_0i-jA8CKH0Ls61-3">
          <mxGeometry width="50" height="50" relative="1" as="geometry">
            <mxPoint x="300" y="740" as="sourcePoint" />
            <mxPoint x="370" y="740" as="targetPoint" />
          </mxGeometry>
        </mxCell>
        <mxCell id="DJL6w_0i-jA8CKH0Ls61-140" value="apellido_cliente" style="ellipse;whiteSpace=wrap;html=1;" vertex="1" parent="1">
          <mxGeometry x="5" y="1295" width="110" height="50" as="geometry" />
        </mxCell>
        <mxCell id="DJL6w_0i-jA8CKH0Ls61-141" value="" style="endArrow=none;html=1;rounded=0;entryX=1;entryY=0.5;entryDx=0;entryDy=0;exitX=0;exitY=0.5;exitDx=0;exitDy=0;" edge="1" parent="1" source="DJL6w_0i-jA8CKH0Ls61-54" target="DJL6w_0i-jA8CKH0Ls61-140">
          <mxGeometry width="50" height="50" relative="1" as="geometry">
            <mxPoint x="225" y="1300" as="sourcePoint" />
            <mxPoint x="225" y="1230" as="targetPoint" />
          </mxGeometry>
        </mxCell>
        <mxCell id="DJL6w_0i-jA8CKH0Ls61-142" value="anio" style="ellipse;whiteSpace=wrap;html=1;" vertex="1" parent="1">
          <mxGeometry x="520" y="1390" width="110" height="50" as="geometry" />
        </mxCell>
        <mxCell id="DJL6w_0i-jA8CKH0Ls61-143" value="" style="endArrow=none;html=1;rounded=0;entryX=0.5;entryY=1;entryDx=0;entryDy=0;exitX=0.5;exitY=0;exitDx=0;exitDy=0;" edge="1" parent="1" source="DJL6w_0i-jA8CKH0Ls61-142" target="DJL6w_0i-jA8CKH0Ls61-55">
          <mxGeometry width="50" height="50" relative="1" as="geometry">
            <mxPoint x="615" y="1440" as="sourcePoint" />
            <mxPoint x="665" y="1390" as="targetPoint" />
          </mxGeometry>
        </mxCell>
        <mxCell id="DJL6w_0i-jA8CKH0Ls61-145" value="&lt;font style=&quot;font-size: 14px;&quot;&gt;&lt;b&gt;(1:N)&lt;/b&gt;&lt;/font&gt;" style="text;html=1;strokeColor=none;fillColor=none;align=center;verticalAlign=middle;whiteSpace=wrap;rounded=0;" vertex="1" parent="1">
          <mxGeometry x="355" y="1250" width="60" height="30" as="geometry" />
        </mxCell>
        <mxCell id="DJL6w_0i-jA8CKH0Ls61-146" value="&lt;font style=&quot;font-size: 14px;&quot;&gt;&lt;b&gt;(N:M)&lt;/b&gt;&lt;/font&gt;" style="text;html=1;strokeColor=none;fillColor=none;align=center;verticalAlign=middle;whiteSpace=wrap;rounded=0;" vertex="1" parent="1">
          <mxGeometry x="705" y="1360" width="60" height="30" as="geometry" />
        </mxCell>
        <mxCell id="DJL6w_0i-jA8CKH0Ls61-147" style="edgeStyle=orthogonalEdgeStyle;rounded=0;orthogonalLoop=1;jettySize=auto;html=1;exitX=0.5;exitY=0;exitDx=0;exitDy=0;entryX=0.5;entryY=1;entryDx=0;entryDy=0;" edge="1" parent="1" target="DJL6w_0i-jA8CKH0Ls61-148" source="DJL6w_0i-jA8CKH0Ls61-123">
          <mxGeometry relative="1" as="geometry">
            <mxPoint x="580" y="1910" as="sourcePoint" />
          </mxGeometry>
        </mxCell>
        <mxCell id="DJL6w_0i-jA8CKH0Ls61-148" value="registro" style="ellipse;whiteSpace=wrap;html=1;" vertex="1" parent="1">
          <mxGeometry x="525" y="1850" width="110" height="50" as="geometry" />
        </mxCell>
        <mxCell id="DJL6w_0i-jA8CKH0Ls61-149" value="&lt;font style=&quot;font-size: 14px;&quot;&gt;&lt;b&gt;(N:M)&lt;/b&gt;&lt;/font&gt;" style="text;html=1;strokeColor=none;fillColor=none;align=center;verticalAlign=middle;whiteSpace=wrap;rounded=0;" vertex="1" parent="1">
          <mxGeometry x="200" y="1890" width="60" height="30" as="geometry" />
        </mxCell>
        <mxCell id="DJL6w_0i-jA8CKH0Ls61-150" value="Text" style="text;html=1;strokeColor=none;fillColor=none;align=center;verticalAlign=middle;whiteSpace=wrap;rounded=0;" vertex="1" parent="1">
          <mxGeometry x="600" y="280" width="60" height="30" as="geometry" />
        </mxCell>
        <mxCell id="DJL6w_0i-jA8CKH0Ls61-151" value="&lt;h1&gt;Ejercicio 1&lt;br&gt;&lt;/h1&gt;&lt;p&gt;Nombre: Cristian &lt;br&gt;&lt;/p&gt;&lt;p&gt;Apellido:Gimenez &lt;br&gt;&lt;/p&gt;&lt;p&gt;Documento: 36918628&lt;br&gt;&lt;/p&gt;" style="text;html=1;strokeColor=none;fillColor=none;spacing=5;spacingTop=-20;whiteSpace=wrap;overflow=hidden;rounded=0;" vertex="1" parent="1">
          <mxGeometry x="5" y="10" width="195" height="120" as="geometry" />
        </mxCell>
        <mxCell id="DJL6w_0i-jA8CKH0Ls61-152" value="&lt;h1&gt;Ejercicio 2&lt;br&gt;&lt;/h1&gt;&lt;p&gt;Nombre: Cristian &lt;br&gt;&lt;/p&gt;&lt;p&gt;Apellido:Gimenez &lt;br&gt;&lt;/p&gt;&lt;p&gt;Documento: 36918628&lt;br&gt;&lt;/p&gt;" style="text;html=1;strokeColor=none;fillColor=none;spacing=5;spacingTop=-20;whiteSpace=wrap;overflow=hidden;rounded=0;" vertex="1" parent="1">
          <mxGeometry y="940" width="195" height="120" as="geometry" />
        </mxCell>
        <mxCell id="DJL6w_0i-jA8CKH0Ls61-153" value="&lt;h1&gt;Ejercicio 3&lt;br&gt;&lt;/h1&gt;&lt;p&gt;Nombre: Cristian &lt;br&gt;&lt;/p&gt;&lt;p&gt;Apellido:Gimenez &lt;br&gt;&lt;/p&gt;&lt;p&gt;Documento: 36918628&lt;br&gt;&lt;/p&gt;" style="text;html=1;strokeColor=none;fillColor=none;spacing=5;spacingTop=-20;whiteSpace=wrap;overflow=hidden;rounded=0;" vertex="1" parent="1">
          <mxGeometry x="5" y="1570" width="195" height="120" as="geometry" />
        </mxCell>
      </root>
    </mxGraphModel>
  </diagram>
</mxfile>
